<?xml version="1.0" encoding="UTF-8" standalone="no"?>
<svg
   xmlns:dc="http://purl.org/dc/elements/1.1/"
   xmlns:cc="http://creativecommons.org/ns#"
   xmlns:rdf="http://www.w3.org/1999/02/22-rdf-syntax-ns#"
   xmlns:svg="http://www.w3.org/2000/svg"
   xmlns="http://www.w3.org/2000/svg"
   id="svg8"
   version="1.1"
   viewBox="0 0 92.959686 93.544334"
   height="93.544334mm"
   width="92.959686mm">
  <defs
     id="defs2" />
  <metadata
     id="metadata5">
    <rdf:RDF>
      <cc:Work
         rdf:about="">
        <dc:format>image/svg+xml</dc:format>
        <dc:type
           rdf:resource="http://purl.org/dc/dcmitype/StillImage" />
        <dc:title></dc:title>
      </cc:Work>
    </rdf:RDF>
  </metadata>
  <g
     transform="translate(-116.05344,-0.58139038)"
     id="layer1">
    <ellipse
       style="fill:#53ff49;fill-opacity:1;stroke-width:0.26458332"
       ry="46.772167"
       rx="46.479843"
       cy="47.353558"
       cx="162.53328"
       id="path3731" />
    <path
       id="path4600"
       d="m 142.70572,64.188123 c -5.38611,-4.50754 -9.82964,-8.28865 -9.87451,-8.40247 -0.0852,-0.21611 7.99948,-9.445793 8.40621,-9.596769 0.12804,-0.04753 2.69228,2.040959 5.6983,4.641075 l 5.46551,4.727484 1.21801,-1.1789 c 0.6699,-0.6484 8.31322,-7.956109 16.98514,-16.239361 l 15.76714,-15.060459 3.23406,2.950006 c 1.77873,1.622502 3.93662,3.604697 4.79531,4.404874 l 1.56127,1.454869 -0.97662,0.945793 c -1.7685,1.712701 -41.6181,38.865668 -42.05741,39.211378 -0.35108,0.27629 -2.21731,-1.15819 -10.22241,-7.85752 z"
       style="fill:#ffffff;fill-opacity:1;stroke-width:0.29232603" />
    <path
       id="path4604"
       d="M 149.52568,74.072226 C 147.84764,72.810819 135.82038,62.816218 133.1185,60.437929 l -1.30343,-1.14732 0.72887,-0.953464 c 1.45826,-1.907622 7.28341,-8.407775 7.53468,-8.407775 0.28127,0 2.2596,1.598239 7.01199,5.664779 1.68818,1.444551 3.29764,2.81849 3.57657,3.053197 0.62572,0.526513 -1.01404,2.001813 18.86519,-16.973119 14.03291,-13.394571 15.62468,-14.826374 16.10415,-14.485768 0.95229,0.676484 8.8082,7.972571 8.80957,8.181785 0.003,0.395377 -42.23876,39.794674 -42.81145,39.931032 -0.19798,0.04714 -1.14701,-0.505936 -2.10896,-1.22905 z"
       style="opacity:1;fill:none;fill-opacity:1;stroke:none;stroke-width:0.29232603;stroke-opacity:1" />
  </g>
</svg>
